<svg width="93" height="91" viewBox="0 0 93 91" fill="none" xmlns="http://www.w3.org/2000/svg">
<path d="M18.4934 25.0876C6.49372 37.5791 -0.00623742 53.072 13.9933 66.0688C25.9938 77.2098 35.4937 84.5607 55.9936 79.563C76.4935 74.5653 84.349 64.2218 84.349 48.5594C84.3489 33.584 73.0913 30.1997 60.9934 17.5914C37.4938 -6.89968 28.2515 14.9295 18.4934 25.0876Z" fill="#92C4FF"/>
<path d="M78.0001 33.5001C78.0001 64.5001 67.0001 70 56.0001 75.5641C45.0002 81.1282 25.5001 88.4999 17.5001 75C9.72013 61.8713 18.475 57.5782 15.0001 46.0001C10.5001 31.0065 16.6704 12.2434 31.5001 14.5001C54.5001 18 78.0001 8.32138 78.0001 33.5001Z" fill="#907AFF"/>
<g clip-path="url(#clip0_27_906)">
<path d="M55.8066 33.9592C56.2596 33.9592 56.6269 33.5919 56.6269 33.1389C56.6269 32.6859 56.2596 32.3186 55.8066 32.3186H55.8019C55.3489 32.3186 54.9839 32.6859 54.9839 33.1389C54.9839 33.5919 55.3536 33.9592 55.8066 33.9592Z" fill="white"/>
<path d="M60.2338 33.9592C60.6868 33.9592 61.0541 33.5919 61.0541 33.1389C61.0541 32.6859 60.6868 32.3186 60.2338 32.3186H60.2291C59.7762 32.3186 59.4111 32.6859 59.4111 33.1389C59.4111 33.5919 59.7808 33.9592 60.2338 33.9592Z" fill="white"/>
<path d="M51.3793 33.9592C51.8323 33.9592 52.1996 33.5919 52.1996 33.1389C52.1996 32.6859 51.8323 32.3186 51.3793 32.3186H51.3747C50.9217 32.3186 50.5566 32.6859 50.5566 33.1389C50.5566 33.5919 50.9263 33.9592 51.3793 33.9592Z" fill="white"/>
<path d="M29.7637 33.9592H42.0899C42.5429 33.9592 42.9102 33.5919 42.9102 33.1389C42.9102 32.6859 42.5429 32.3186 42.0899 32.3186H29.7637C29.3106 32.3186 28.9434 32.6859 28.9434 33.1389C28.9434 33.5919 29.3106 33.9592 29.7637 33.9592Z" fill="white"/>
<path d="M63.3684 28.0015H26.6317C25.1806 28.0015 24 29.182 24 30.6331V61.0079C24 62.4589 25.1806 63.6395 26.6317 63.6395H33.197C33.7205 64.4321 34.3281 65.1767 35.0155 65.8641C37.6828 68.5314 41.2287 70.0003 45 70.0003C48.7714 70.0003 52.3173 68.5314 54.9846 65.8641C55.6761 65.1725 56.2807 64.4264 56.7985 63.6395H63.3684C64.8194 63.6395 66 62.4589 66 61.0079V30.6331C66 29.182 64.8194 28.0015 63.3684 28.0015V28.0015ZM26.6317 29.6421H63.3684C63.9148 29.6421 64.3594 30.0867 64.3594 30.6331V36.6398H25.6406V30.6331C25.6406 30.0867 26.0852 29.6421 26.6317 29.6421V29.6421ZM63.3684 61.9989H57.7252C60.2451 56.7459 59.3323 50.2451 54.9846 45.8973C52.7742 43.687 49.9721 42.3002 46.8811 41.8869C43.8896 41.4871 40.7953 42.067 38.1679 43.5203C37.7714 43.7397 37.6278 44.2387 37.847 44.6352C38.0663 45.0316 38.5656 45.1752 38.9618 44.956C43.7996 42.2801 49.9113 43.1443 53.8244 47.0574C58.6896 51.9226 58.6896 59.8389 53.8244 64.7039C51.467 67.0613 48.3331 68.3596 45 68.3596C41.6669 68.3596 38.533 67.0613 36.1756 64.7039C32.263 60.7914 31.3989 54.6807 34.0741 49.8438C34.2934 49.4473 34.1497 48.9482 33.7533 48.7289C33.357 48.5096 32.8577 48.6532 32.6385 49.0497C31.1852 51.6771 30.6052 54.7711 31.0051 57.7618C31.2045 59.2527 31.6311 60.6762 32.2669 61.9988H26.6317C26.0852 61.9988 25.6406 61.5542 25.6406 61.0078V38.2802H64.3594V61.0078C64.3594 61.5543 63.9148 61.9989 63.3684 61.9989Z" fill="white"/>
<path d="M44.999 60.6065C45.4521 60.6065 45.8193 60.2392 45.8193 59.7862V57.8284C45.8193 57.3754 45.452 57.0081 44.999 57.0081C44.546 57.0081 44.1787 57.3754 44.1787 57.8284V59.7862C44.1787 60.2393 44.546 60.6065 44.999 60.6065Z" fill="white"/>
<path d="M44.9989 65.2826C48.8745 65.2826 52.0276 62.1294 52.0276 58.2538V55.117C52.0276 54.0557 51.2644 53.1697 50.2582 52.9778V50.8269C50.2582 48.4053 48.2879 46.4351 45.8662 46.4351H44.1316C41.7099 46.4351 39.7397 48.4053 39.7397 50.8269V52.9781C38.7333 53.1707 37.9702 54.0563 37.9702 55.117V58.2538C37.9701 62.1295 41.1232 65.2826 44.9989 65.2826V65.2826ZM41.3803 50.8269C41.3803 49.3099 42.6145 48.0757 44.1316 48.0757H45.8662C47.3833 48.0757 48.6175 49.3099 48.6175 50.8269V52.9387H41.3803V50.8269ZM39.6108 55.117C39.6108 54.8255 39.8581 54.5794 40.1508 54.5794H49.8493C50.1408 54.5794 50.387 54.8255 50.387 55.117V58.2538C50.387 61.2248 47.9699 63.6419 44.9989 63.6419C42.0279 63.6419 39.6108 61.2248 39.6108 58.2538V55.117Z" fill="white"/>
<path d="M35.0156 45.8965C34.6953 46.2169 34.6953 46.7363 35.0156 47.0567C35.1758 47.2168 35.3858 47.297 35.5957 47.297C35.8056 47.297 36.0156 47.2168 36.1757 47.0567L36.178 47.0544C36.4984 46.7341 36.4972 46.2158 36.1769 45.8955C35.8565 45.5751 35.3361 45.5762 35.0156 45.8965V45.8965Z" fill="white"/>
</g>
<defs>
<clipPath id="clip0_27_906">
<rect width="42" height="42" fill="white" transform="translate(24 28)"/>
</clipPath>
</defs>
</svg>
