<svg width="93" height="91" viewBox="0 0 93 91" fill="none" xmlns="http://www.w3.org/2000/svg">
<path d="M18.4934 25.0876C6.49372 37.5791 -0.00623742 53.072 13.9933 66.0688C25.9938 77.2098 35.4937 84.5607 55.9936 79.563C76.4935 74.5653 84.349 64.2218 84.349 48.5594C84.3489 33.584 73.0913 30.1997 60.9934 17.5914C37.4938 -6.89968 28.2515 14.9295 18.4934 25.0876Z" fill="#92C4FF"/>
<path d="M78.0001 33.5001C78.0001 64.5001 67.0001 70 56.0001 75.5641C45.0002 81.1282 25.5001 88.4999 17.5001 75C9.72013 61.8713 18.475 57.5782 15.0001 46.0001C10.5001 31.0065 16.6704 12.2434 31.5001 14.5001C54.5001 18 78.0001 8.32138 78.0001 33.5001Z" fill="#907AFF"/>
<path d="M65.783 48.3352C65.9147 47.37 65.9844 46.3856 65.9844 45.3848C65.9844 39.3663 63.5099 33.8613 59.4824 29.9131C59.4568 29.8854 59.4304 29.8594 59.4023 29.8351C56.3374 26.8613 52.3863 24.7846 47.9463 24.057C47.588 22.4498 46.1558 21.2451 44.448 21.2451C42.7384 21.2451 41.305 22.4498 40.9463 24.0565C38.5796 24.443 36.3103 25.2206 34.1904 26.3754C33.6714 26.6582 33.4792 27.3098 33.7612 27.8302C33.9555 28.1881 34.323 28.3912 34.7028 28.3912C34.8753 28.3912 35.0502 28.3492 35.2126 28.2607C37.0707 27.2486 39.0555 26.5579 41.1254 26.2012C41.6609 27.5146 42.9483 28.4428 44.448 28.4428C45.946 28.4428 47.2317 27.515 47.7671 26.2016C50.7267 26.7131 53.4412 27.8918 55.7638 29.5707H51.6754C49.4725 29.5707 47.6803 31.3688 47.6803 33.5789C47.6803 35.7874 49.4725 37.5842 51.6754 37.5842C52.6968 37.5842 53.5272 38.42 53.5272 39.4468C53.5272 40.4741 52.6968 41.3095 51.6754 41.3095H51.0565C48.8552 41.3095 47.0643 43.1063 47.0643 45.3152C47.0643 47.5253 48.8552 49.3233 51.0565 49.3233H63.4449C61.6258 58.1773 53.7991 64.8546 44.448 64.8546C40.188 64.8546 36.2449 63.4682 33.0415 61.123H37.1412C39.3442 61.123 41.1364 59.3253 41.1364 57.1148C41.1364 54.9063 39.3442 53.1096 37.1412 53.1096C36.1198 53.1096 35.2894 52.2741 35.2894 51.2469C35.2894 50.2213 36.1198 49.3871 37.1412 49.3871H37.7572C39.9602 49.3871 41.7523 47.5891 41.7523 45.379C41.7523 43.1684 39.9602 41.3704 37.7572 41.3704H25.4574C26.0574 38.4788 27.3104 35.7697 29.1668 33.3901C29.5306 32.9235 29.4483 32.2491 28.9826 31.8841C28.5172 31.519 27.8446 31.6017 27.4803 32.0687C24.4893 35.9036 22.9082 40.5085 22.9082 45.3848C22.9082 51.3648 25.3411 56.7854 29.2654 60.7025C29.3275 60.7831 29.4001 60.8544 29.4823 60.9148C33.3604 64.6796 38.6388 67.0001 44.448 67.0001C55.2783 67.0001 64.2652 58.9347 65.7632 48.474C65.7729 48.4287 65.7792 48.3826 65.783 48.3352V48.3352ZM25.1364 43.5163H37.7572C38.7798 43.5163 39.6119 44.3517 39.6119 45.379C39.6119 46.4058 38.7798 47.2416 37.7572 47.2416H37.1412C34.9399 47.2416 33.1489 49.038 33.1489 51.2469C33.1489 53.457 34.9399 55.2551 37.1412 55.2551C38.1638 55.2551 38.9959 56.0892 38.9959 57.1148C38.9959 58.1416 38.1638 58.9775 37.1412 58.9775H30.5733C27.1572 55.4661 25.0487 50.6682 25.0487 45.3848C25.0487 44.7562 25.0789 44.1331 25.1364 43.5163V43.5163ZM44.448 26.2969C43.649 26.2969 42.9995 25.6444 42.9995 24.8425C42.9995 24.0419 43.649 23.3906 44.448 23.3906C45.2448 23.3906 45.8931 24.0419 45.8931 24.8425C45.8931 25.6444 45.2448 26.2969 44.448 26.2969ZM51.0565 47.1774C50.0352 47.1774 49.2047 46.342 49.2047 45.3148C49.2047 44.2896 50.0352 43.455 51.0565 43.455H51.6754C53.8768 43.455 55.6677 41.657 55.6677 39.4468C55.6677 37.2367 53.8768 35.4387 51.6754 35.4387C50.6528 35.4387 49.8207 34.6045 49.8207 33.5789C49.8207 32.5517 50.6528 31.7162 51.6754 31.7162H58.2559C61.7248 35.2515 63.8439 40.0981 63.8439 45.3848C63.8439 45.9891 63.815 46.587 63.7608 47.1774H51.0565Z" fill="white"/>
<path d="M31.0312 30.9365C31.2368 30.9365 31.4449 30.8773 31.6287 30.7531L31.6467 30.7409C32.1369 30.4099 32.2661 29.7431 31.9354 29.2517C31.6052 28.7604 30.9401 28.6307 30.45 28.9622L30.432 28.9744C29.9418 29.3054 29.8126 29.9726 30.1428 30.4636C30.3497 30.7707 30.6871 30.9365 31.0312 30.9365Z" fill="white"/>
</svg>
