<svg width="93" height="91" viewBox="0 0 93 91" fill="none" xmlns="http://www.w3.org/2000/svg">
<path d="M18.4934 25.0876C6.49372 37.5791 -0.00623742 53.072 13.9933 66.0688C25.9938 77.2098 35.4937 84.5607 55.9936 79.563C76.4935 74.5653 84.349 64.2218 84.349 48.5594C84.3489 33.584 73.0913 30.1997 60.9934 17.5914C37.4938 -6.89968 28.2515 14.9295 18.4934 25.0876Z" fill="#92C4FF"/>
<path d="M78.0001 33.5001C78.0001 64.5001 67.0001 70 56.0001 75.5641C45.0002 81.1282 25.5001 88.4999 17.5001 75C9.72013 61.8713 18.475 57.5782 15.0001 46.0001C10.5001 31.0065 16.6704 12.2434 31.5001 14.5001C54.5001 18 78.0001 8.32138 78.0001 33.5001Z" fill="#907AFF"/>
<path d="M40.5839 39.6603C42.2534 39.6603 43.6068 38.3069 43.6068 36.6374C43.6068 34.9679 42.2534 33.6145 40.5839 33.6145C38.9144 33.6145 37.561 34.9679 37.561 36.6374C37.561 38.3069 38.9144 39.6603 40.5839 39.6603Z" fill="white"/>
<path d="M65.3969 47.7634C63.9695 46.4198 62.1641 45.5382 60.1908 45.2863V29.9198C60.1908 28.2824 59.5191 26.813 58.4695 25.7214C57.3779 24.6298 55.9084 24 54.271 24H29.9198C28.2824 24 26.813 24.6718 25.7214 25.7214C24.6298 26.813 24 28.2824 24 29.9198V49.2748V51.0802V54.9847C24 56.6221 24.6718 58.0916 25.7214 59.1832C26.813 60.2748 28.2824 60.9046 29.9198 60.9046H53.4733C55.0267 62.1641 56.958 62.9618 59.0992 62.9618C61.5763 62.9618 63.8015 61.9542 65.3969 60.3588C66.9924 58.7634 68 56.5382 68 54.0611C68 51.584 66.9924 49.3588 65.3969 47.7634ZM26.2252 29.9198C26.2252 28.9122 26.645 27.9885 27.3168 27.3588C27.9885 26.687 28.9122 26.2672 29.9198 26.2672H54.271C55.2786 26.2672 56.2023 26.687 56.874 27.3588C57.5458 28.0305 57.9656 28.9542 57.9656 29.9618V43.0611L51.7519 36.8473C51.3321 36.4275 50.6183 36.3855 50.1565 36.8473L40.7939 46.2519L34.4542 39.8702C34.0344 39.4504 33.3206 39.4084 32.8588 39.8702L26.2252 46.5878V29.9198V29.9198ZM29.8779 58.7634V58.6794C28.8702 58.6794 27.9466 58.2595 27.2748 57.5878C26.645 56.916 26.2252 55.9924 26.2252 54.9847V51.0802V49.7786L33.6565 42.3053L39.9962 48.645C40.416 49.0649 41.1298 49.0649 41.5916 48.645L50.9542 39.2405L57.084 45.4122C56.958 45.4542 56.8321 45.4962 56.7061 45.5382C56.5382 45.5802 56.3702 45.6221 56.1603 45.7061C55.9924 45.7481 55.8244 45.8321 55.6565 45.874C55.5305 45.916 55.4466 45.958 55.3206 46.042C55.1527 46.126 55.0267 46.1679 54.9008 46.2519C54.6908 46.3779 54.4809 46.5038 54.271 46.6298C54.145 46.7137 54.0611 46.7557 53.9351 46.8397C53.8511 46.8817 53.8092 46.9237 53.7252 46.9656C53.3473 47.2176 53.0114 47.5115 52.7176 47.8473C51.1221 49.4427 50.1145 51.6679 50.1145 54.145C50.1145 54.7748 50.1985 55.3626 50.3244 55.9924C50.3664 56.1603 50.4084 56.2863 50.4504 56.4542C50.5763 56.874 50.7023 57.2939 50.8702 57.7137V57.7557C51.0382 58.0916 51.2061 58.4695 51.416 58.7634H29.8779V58.7634ZM63.7595 58.7634C62.542 59.9809 60.9046 60.6947 59.0573 60.6947C57.2939 60.6947 55.6565 59.9809 54.4809 58.8473C54.313 58.6794 54.145 58.4695 53.9771 58.3015C53.8511 58.1756 53.7252 58.0076 53.5992 57.8817C53.4313 57.6718 53.3053 57.4198 53.1794 57.1679C53.0954 57 53.0114 56.874 52.9275 56.7061C52.8435 56.4962 52.7595 56.2443 52.7176 55.9924C52.6756 55.8244 52.5916 55.6145 52.5496 55.4466C52.4656 55.0267 52.4237 54.5649 52.4237 54.1031C52.4237 52.2557 53.1794 50.6183 54.355 49.4008C55.5305 48.1832 57.2099 47.4695 59.0573 47.4695C60.9046 47.4695 62.542 48.2252 63.7595 49.4008C64.9771 50.6183 65.6908 52.2557 65.6908 54.1031C65.6908 55.9084 64.9351 57.5458 63.7595 58.7634Z" fill="white"/>
<path d="M59.8552 49.5688C59.7712 49.4848 59.6452 49.4009 59.4773 49.3169C59.3513 49.2749 59.2254 49.2329 59.0994 49.2329C59.0574 49.2329 59.0574 49.2329 59.0574 49.2329C59.0155 49.2329 59.0155 49.2329 59.0155 49.2329C58.8895 49.2329 58.7636 49.2749 58.6376 49.3169C58.5116 49.3589 58.3857 49.4428 58.2597 49.5688L55.6567 52.1718C55.2368 52.5917 55.2368 53.3054 55.6567 53.7673C56.0765 54.1871 56.7903 54.1871 57.2521 53.7673L57.9239 53.0955V57.7138C57.9239 58.3436 58.4277 58.8474 59.0574 58.8474C59.6872 58.8474 60.191 58.3436 60.191 57.7138V53.0955L60.8628 53.7673C61.2826 54.1871 61.9964 54.1871 62.4582 53.7673C62.8781 53.3474 62.8781 52.6337 62.4582 52.1718L59.8552 49.5688Z" fill="white"/>
</svg>
