<svg width="93" height="91" viewBox="0 0 93 91" fill="none" xmlns="http://www.w3.org/2000/svg">
<path d="M18.4934 25.0876C6.49372 37.5791 -0.00623742 53.072 13.9933 66.0688C25.9938 77.2098 35.4937 84.5607 55.9936 79.563C76.4935 74.5653 84.349 64.2218 84.349 48.5594C84.3489 33.584 73.0913 30.1997 60.9934 17.5914C37.4938 -6.89968 28.2515 14.9295 18.4934 25.0876Z" fill="#92C4FF"/>
<path d="M78.0001 33.5001C78.0001 64.5001 67.0001 70 56.0001 75.5641C45.0002 81.1282 25.5001 88.4999 17.5001 75C9.72013 61.8713 18.475 57.5782 15.0001 46.0001C10.5001 31.0065 16.6704 12.2434 31.5001 14.5001C54.5001 18 78.0001 8.32138 78.0001 33.5001Z" fill="#907AFF"/>
<g clip-path="url(#clip0_27_967)">
<path d="M43.6523 31.3906C38.4628 31.6886 33.5983 33.7034 29.7178 37.1624L35.4723 42.9166C36.7386 42.467 38.101 42.2214 39.5195 42.2214C40.97 42.2214 42.3619 42.4779 43.6523 42.9471V31.3906Z" fill="white"/>
<path d="M48.884 46.6504L59.7695 36.7188C55.9771 33.5311 51.3112 31.6756 46.3477 31.3906V44.3316C47.2987 44.9816 48.153 45.7632 48.884 46.6504V46.6504Z" fill="white"/>
<path d="M22 54.3506V55.6982H27.3906V54.3506C27.3906 50.0939 29.595 46.3429 32.9216 44.1779L27.8121 39.0684C24.0552 43.2829 22 48.6585 22 54.3506Z" fill="white"/>
<path d="M60.853 55.6983H67.9998V54.3506C67.9998 52.3909 67.7552 50.4691 67.2828 48.6189L60.853 55.6983Z" fill="white"/>
<path d="M44.9995 55.7437C43.5595 55.7437 42.2056 56.3045 41.1875 57.3226C39.086 59.4244 39.086 62.8441 41.1875 64.946C42.2056 65.9641 43.5595 66.5249 44.9995 66.5249C46.4391 66.5249 47.7931 65.9641 48.8112 64.946C50.913 62.8441 50.913 59.4244 48.8112 57.3226C47.7931 56.3045 46.4391 55.7437 44.9995 55.7437Z" fill="white"/>
<path d="M62.2668 38.0889L45.8247 53.09C47.6725 53.276 49.3862 54.0856 50.717 55.4164C52.0801 56.7795 52.8525 58.5125 53.0371 60.2954L68 43.8203V38.0889H62.2668Z" fill="white"/>
</g>
<defs>
<clipPath id="clip0_27_967">
<rect width="46" height="46" fill="white" transform="translate(22 26)"/>
</clipPath>
</defs>
</svg>
