<svg width="115" height="124" viewBox="0 0 115 124" fill="none" xmlns="http://www.w3.org/2000/svg">
<path opacity="0.253397" fill-rule="evenodd" clip-rule="evenodd" d="M20.3638 88.6175C20.3638 88.6175 20.935 85.4624 23.1812 92.8817C25.4274 100.301 50.8263 116.539 59.3284 103.388C67.8304 90.2376 79.8505 104.995 88.1538 101.048C96.457 97.101 97.7722 91.8921 91.5832 79.3411C85.3942 66.7901 100.618 51.4962 85.4426 41.6637C70.2669 31.8313 82.0153 34.2468 82.0153 34.2468L81.938 74.3895L61.6239 92.8064L20.3638 88.6175Z" fill="url(#paint0_linear_2034_1132)"/>
<path opacity="0.518059" fill-rule="evenodd" clip-rule="evenodd" d="M80.5934 49.5454C80.5934 49.5454 78.8289 49.4428 82.7364 47.6925C86.6439 45.9422 93.8162 30.7459 86.049 26.9215C78.2817 23.0972 85.5449 15.4251 82.8263 11.0859C80.1077 6.74669 77.1695 6.37071 70.7202 10.6574C64.2709 14.944 51.8289 3.49477 47.4724 12.5833C43.1158 21.6718 50.5159 10.6373 50.5159 10.6373L68.6612 16.3456L80.1052 26.3665L80.5934 49.5454Z" fill="url(#paint1_linear_2034_1132)"/>
<circle cx="44.8541" cy="53.824" r="39.8541" stroke="url(#paint2_linear_2034_1132)" stroke-width="10" stroke-linecap="round"/>
<path d="M57.5155 66.2051H56.08H32.7715H31.3359H29.9004V70.0121H58.9511V66.2051H57.5155Z" fill="#7A00F4"/>
<path d="M33.2864 42.572L31.2891 47.4424L32.5791 48.0778L33.8702 48.7133L35.4455 49.4885L36.6159 47.8166L37.4428 46.6356L38.2687 45.4556L33.2864 42.572Z" fill="#7A00F4"/>
<path d="M55.7138 42.572L50.6367 45.5101L51.4636 46.6901L52.2895 47.8711L53.4217 49.4885L55.108 48.6587L56.398 48.0233L57.6891 47.3878L55.7138 42.572Z" fill="#7A00F4"/>
<path d="M64.9518 42.2315C62.8817 42.2315 61.1705 43.7914 60.9322 45.7983C60.9131 45.9562 60.9035 46.117 60.9035 46.2797C60.9035 46.6453 60.9523 47.0003 61.0442 47.3372C61.1715 47.809 61.383 48.2474 61.6605 48.634L58.7818 50.0514L57.4907 50.6868L57.33 50.7663H57.329L56.1997 51.3213L52.4816 53.1521L49.7953 49.3154L49.0727 48.2828V48.2818L48.9684 48.1335L48.1425 46.9534L45.3652 42.9856C45.8513 42.8727 46.305 42.6717 46.7069 42.3999C47.1117 42.1281 47.4649 41.7826 47.7482 41.3845C48.219 40.7232 48.4966 39.9145 48.4966 39.0426C48.4966 36.8099 46.6811 34.9944 44.4483 34.9944C42.2165 34.9944 40.4001 36.8099 40.4001 39.0426C40.4001 39.9059 40.6719 40.7069 41.1341 41.3644C41.4155 41.7644 41.7667 42.1118 42.1696 42.3865C42.5697 42.6602 43.0214 42.8641 43.5066 42.9799L40.7628 46.8989L39.9369 48.0789L39.7598 48.3325L39.11 49.2608L36.3863 53.1521L32.7773 51.3759L31.5887 50.7902L31.4872 50.7404L30.1962 50.105L27.0629 48.5632C27.3835 48.2052 27.6419 47.7899 27.8199 47.3353C27.9979 46.8807 28.0955 46.3869 28.0965 45.871V45.8634C28.0965 43.6306 26.281 41.8142 24.0482 41.8142C21.8164 41.8142 20 43.6306 20 45.8634C20 47.9105 21.5284 49.6092 23.5046 49.8753C23.6827 49.8992 23.8635 49.9116 24.0482 49.9116C24.3755 49.9116 24.6933 49.8724 24.9986 49.7987C25.4761 49.6839 25.9212 49.4838 26.3164 49.2159L30.8259 61.8984L31.336 63.334H57.5309L58.041 61.8984L62.4616 49.4685C62.8415 49.7662 63.275 49.9968 63.7459 50.1442C64.1268 50.2638 64.5316 50.3279 64.9518 50.3279C65.0379 50.3279 65.1231 50.3251 65.2073 50.3193C67.3204 50.1873 69 48.4254 69 46.2797C69 44.0469 67.1836 42.2315 64.9518 42.2315Z" fill="#A078FA"/>
<defs>
<linearGradient id="paint0_linear_2034_1132" x1="23.4264" y1="50.5368" x2="142.437" y2="94.539" gradientUnits="userSpaceOnUse">
<stop stop-color="#FD749B"/>
<stop offset="1" stop-color="#281AC8"/>
</linearGradient>
<linearGradient id="paint1_linear_2034_1132" x1="58.7716" y1="50.2216" x2="75.3656" y2="-18.6755" gradientUnits="userSpaceOnUse">
<stop stop-color="#BB6DF3"/>
<stop offset="1" stop-color="#7A00F4"/>
</linearGradient>
<linearGradient id="paint2_linear_2034_1132" x1="106.5" y1="-10.0007" x2="30.1228" y2="107.527" gradientUnits="userSpaceOnUse">
<stop stop-color="#907EFF"/>
<stop offset="1" stop-color="#BB6DF3"/>
</linearGradient>
</defs>
</svg>
