<svg width="115" height="124" viewBox="0 0 115 124" fill="none" xmlns="http://www.w3.org/2000/svg">
<path opacity="0.253397" fill-rule="evenodd" clip-rule="evenodd" d="M20.3638 88.6175C20.3638 88.6175 20.935 85.4624 23.1812 92.8817C25.4274 100.301 50.8263 116.539 59.3284 103.388C67.8304 90.2376 79.8505 104.995 88.1538 101.048C96.457 97.101 97.7722 91.8921 91.5832 79.3411C85.3942 66.7901 100.618 51.4962 85.4426 41.6637C70.2669 31.8313 82.0153 34.2468 82.0153 34.2468L81.938 74.3895L61.6239 92.8064L20.3638 88.6175Z" fill="url(#paint0_linear_2034_1133)"/>
<path opacity="0.518059" fill-rule="evenodd" clip-rule="evenodd" d="M80.5934 49.5454C80.5934 49.5454 78.8289 49.4428 82.7364 47.6925C86.6439 45.9422 93.8162 30.7459 86.049 26.9215C78.2817 23.0972 85.5449 15.4251 82.8263 11.0859C80.1077 6.74669 77.1695 6.37071 70.7202 10.6574C64.2709 14.944 51.8289 3.49477 47.4724 12.5833C43.1158 21.6718 50.5159 10.6373 50.5159 10.6373L68.6612 16.3456L80.1052 26.3665L80.5934 49.5454Z" fill="url(#paint1_linear_2034_1133)"/>
<circle cx="44.8541" cy="53.824" r="39.8541" stroke="url(#paint2_linear_2034_1133)" stroke-width="10" stroke-linecap="round"/>
<path d="M47.1562 65.125C47.1562 67.1927 48.8385 68.875 50.9062 68.875H55.3125C57.3802 68.875 59.0625 67.1927 59.0625 65.125V60.7188C59.0625 58.651 57.3802 56.9688 55.3125 56.9688H50.9062C48.8385 56.9688 47.1562 58.651 47.1562 60.7188V65.125ZM50.9062 60.7188H55.3125L55.3148 65.1249C55.3148 65.1249 55.3142 65.125 55.3125 65.125H50.9062V60.7188Z" fill="#B370F5"/>
<path d="M57.1875 52.5625C58.223 52.5625 59.0625 51.723 59.0625 50.6875C59.0625 49.652 58.223 48.8125 57.1875 48.8125C56.152 48.8125 55.3125 49.652 55.3125 50.6875C55.3125 51.723 56.152 52.5625 57.1875 52.5625Z" fill="#B370F5"/>
<path d="M49.0312 52.5625C50.0668 52.5625 50.9062 51.723 50.9062 50.6875C50.9062 49.652 50.0668 48.8125 49.0312 48.8125C47.9957 48.8125 47.1562 49.652 47.1562 50.6875C47.1562 51.723 47.9957 52.5625 49.0312 52.5625Z" fill="#B370F5"/>
<path d="M67.125 64C68.1606 64 69 63.1606 69 62.125V42.25C69 38.1145 65.6355 34.75 61.5 34.75H59.0625V32.875C59.0625 31.8394 58.2231 31 57.1875 31C56.1519 31 55.3125 31.8394 55.3125 32.875V34.75H46.7812V32.875C46.7812 31.8394 45.9418 31 44.9062 31C43.8707 31 43.0312 31.8394 43.0312 32.875V34.75H34.5938V32.875C34.5938 31.8394 33.7543 31 32.7188 31C31.6832 31 30.8438 31.8394 30.8438 32.875V34.75H28.5C24.3645 34.75 21 38.1145 21 42.25V71.5C21 75.6355 24.3645 79 28.5 79H61.5C65.6355 79 69 75.6355 69 71.5C69 70.4644 68.1606 69.625 67.125 69.625C66.0894 69.625 65.25 70.4644 65.25 71.5C65.25 73.5677 63.5677 75.25 61.5 75.25H28.5C26.4323 75.25 24.75 73.5677 24.75 71.5V42.25C24.75 40.1823 26.4323 38.5 28.5 38.5H30.8438V40.375C30.8438 41.4106 31.6832 42.25 32.7188 42.25C33.7543 42.25 34.5938 41.4106 34.5938 40.375V38.5H43.0312V40.375C43.0312 41.4106 43.8707 42.25 44.9062 42.25C45.9418 42.25 46.7812 41.4106 46.7812 40.375V38.5H55.3125V40.375C55.3125 41.4106 56.1519 42.25 57.1875 42.25C58.2231 42.25 59.0625 41.4106 59.0625 40.375V38.5H61.5C63.5677 38.5 65.25 40.1823 65.25 42.25V62.125C65.25 63.1606 66.0894 64 67.125 64Z" fill="#B370F5"/>
<path d="M32.7188 68.875C33.7543 68.875 34.5938 68.0355 34.5938 67C34.5938 65.9645 33.7543 65.125 32.7188 65.125C31.6832 65.125 30.8438 65.9645 30.8438 67C30.8438 68.0355 31.6832 68.875 32.7188 68.875Z" fill="#B370F5"/>
<path d="M32.7188 52.5625C33.7543 52.5625 34.5938 51.723 34.5938 50.6875C34.5938 49.652 33.7543 48.8125 32.7188 48.8125C31.6832 48.8125 30.8438 49.652 30.8438 50.6875C30.8438 51.723 31.6832 52.5625 32.7188 52.5625Z" fill="#B370F5"/>
<path d="M32.7188 60.7188C33.7543 60.7188 34.5938 59.8793 34.5938 58.8438C34.5938 57.8082 33.7543 56.9688 32.7188 56.9688C31.6832 56.9688 30.8438 57.8082 30.8438 58.8438C30.8438 59.8793 31.6832 60.7188 32.7188 60.7188Z" fill="#B370F5"/>
<path d="M40.875 60.7188C41.9105 60.7188 42.75 59.8793 42.75 58.8438C42.75 57.8082 41.9105 56.9688 40.875 56.9688C39.8395 56.9688 39 57.8082 39 58.8438C39 59.8793 39.8395 60.7188 40.875 60.7188Z" fill="#B370F5"/>
<path d="M40.875 52.5625C41.9105 52.5625 42.75 51.723 42.75 50.6875C42.75 49.652 41.9105 48.8125 40.875 48.8125C39.8395 48.8125 39 49.652 39 50.6875C39 51.723 39.8395 52.5625 40.875 52.5625Z" fill="#B370F5"/>
<path d="M40.875 68.875C41.9105 68.875 42.75 68.0355 42.75 67C42.75 65.9645 41.9105 65.125 40.875 65.125C39.8395 65.125 39 65.9645 39 67C39 68.0355 39.8395 68.875 40.875 68.875Z" fill="#B370F5"/>
<defs>
<linearGradient id="paint0_linear_2034_1133" x1="23.4264" y1="50.5368" x2="142.437" y2="94.539" gradientUnits="userSpaceOnUse">
<stop stop-color="#FD749B"/>
<stop offset="1" stop-color="#281AC8"/>
</linearGradient>
<linearGradient id="paint1_linear_2034_1133" x1="58.7716" y1="50.2216" x2="75.3656" y2="-18.6755" gradientUnits="userSpaceOnUse">
<stop stop-color="#BB6DF3"/>
<stop offset="1" stop-color="#7A00F4"/>
</linearGradient>
<linearGradient id="paint2_linear_2034_1133" x1="106.5" y1="-10.0007" x2="30.1228" y2="107.527" gradientUnits="userSpaceOnUse">
<stop stop-color="#907EFF"/>
<stop offset="1" stop-color="#BB6DF3"/>
</linearGradient>
</defs>
</svg>
