<svg width="115" height="124" viewBox="0 0 115 124" fill="none" xmlns="http://www.w3.org/2000/svg">
<path opacity="0.253397" fill-rule="evenodd" clip-rule="evenodd" d="M20.3638 88.6175C20.3638 88.6175 20.935 85.4624 23.1812 92.8817C25.4274 100.301 50.8263 116.539 59.3284 103.388C67.8304 90.2376 79.8505 104.995 88.1538 101.048C96.457 97.101 97.7722 91.8921 91.5832 79.3411C85.3942 66.7901 100.618 51.4962 85.4426 41.6637C70.2669 31.8313 82.0153 34.2468 82.0153 34.2468L81.938 74.3895L61.6239 92.8064L20.3638 88.6175Z" fill="url(#paint0_linear_2034_1147)"/>
<path opacity="0.518059" fill-rule="evenodd" clip-rule="evenodd" d="M80.5934 49.5454C80.5934 49.5454 78.8289 49.4428 82.7364 47.6925C86.6439 45.9422 93.8162 30.7459 86.049 26.9215C78.2817 23.0972 85.5449 15.4251 82.8263 11.0859C80.1077 6.74669 77.1695 6.37071 70.7202 10.6574C64.2709 14.944 51.8289 3.49477 47.4724 12.5833C43.1158 21.6718 50.5159 10.6373 50.5159 10.6373L68.6612 16.3456L80.1052 26.3665L80.5934 49.5454Z" fill="url(#paint1_linear_2034_1147)"/>
<circle cx="44.8541" cy="53.824" r="39.8541" stroke="url(#paint2_linear_2034_1147)" stroke-width="10" stroke-linecap="round"/>
<g clip-path="url(#clip0_2034_1147)">
<path d="M67 45.1797C67 44.6652 66.9002 44.1649 66.7035 43.6929C66.7033 43.6925 66.7032 43.6921 66.703 43.6918L62.4057 33.3796C61.8033 31.9341 60.4021 31 58.836 31H31.164C29.5979 31 28.1967 31.9341 27.5943 33.3796L23.2965 43.6928C23.0998 44.1649 23 44.6652 23 45.1797V50.5078C23 51.4976 23.3742 52.4012 23.9879 53.0859C23.3742 53.7707 23 54.6743 23 55.6641V60.8203C23 61.8101 23.3742 62.7137 23.9879 63.3984C23.3742 64.0832 23 64.9868 23 65.9766V71.1328C23 73.2652 24.7348 75 26.8672 75H63.1328C65.2652 75 67 73.2652 67 71.1328V65.9766C67 64.9868 66.6258 64.0832 66.0121 63.3984C66.6259 62.7137 67 61.8101 67 60.8203V55.6641C67 54.6743 66.6258 53.7707 66.0121 53.0859C66.6259 52.4012 67 51.4976 67 50.5078V45.1797ZM29.9741 34.3713C30.1749 33.8895 30.642 33.5781 31.164 33.5781H58.836C59.358 33.5781 59.8251 33.8895 60.0259 34.3713L62.9186 41.3125H27.0814L29.9741 34.3713ZM64.4219 71.1328C64.4219 71.8436 63.8436 72.4219 63.1328 72.4219H26.8672C26.1564 72.4219 25.5781 71.8436 25.5781 71.1328V65.9766C25.5781 65.2658 26.1564 64.6875 26.8672 64.6875H63.1328C63.8436 64.6875 64.4219 65.2658 64.4219 65.9766V71.1328ZM64.4219 60.8203C64.4219 61.5311 63.8436 62.1094 63.1328 62.1094H26.8672C26.1564 62.1094 25.5781 61.5311 25.5781 60.8203V55.6641C25.5781 54.9533 26.1564 54.375 26.8672 54.375H63.1328C63.8436 54.375 64.4219 54.9533 64.4219 55.6641V60.8203ZM64.4219 50.5078C64.4219 51.2186 63.8436 51.7969 63.1328 51.7969H26.8672C26.1564 51.7969 25.5781 51.2186 25.5781 50.5078V45.1797C25.5781 44.4628 26.157 43.8906 26.8672 43.8906H63.1328C63.8452 43.8906 64.4219 44.465 64.4219 45.1797V50.5078Z" fill="#B370F5"/>
<path d="M60.5547 67.2656H37.1797C36.4678 67.2656 35.8906 67.8428 35.8906 68.5547C35.8906 69.2666 36.4678 69.8438 37.1797 69.8438H60.5547C61.2666 69.8438 61.8438 69.2666 61.8438 68.5547C61.8438 67.8428 61.2666 67.2656 60.5547 67.2656Z" fill="#B370F5"/>
<path d="M60.5547 46.4688H37.1797C36.4678 46.4688 35.8906 47.0459 35.8906 47.7578C35.8906 48.4697 36.4678 49.0469 37.1797 49.0469H60.5547C61.2666 49.0469 61.8438 48.4697 61.8438 47.7578C61.8438 47.0459 61.2666 46.4688 60.5547 46.4688Z" fill="#B370F5"/>
<path d="M29.4453 46.4688C28.7334 46.4688 28.1562 47.0459 28.1562 47.7578C28.1562 48.4697 28.7334 49.2188 29.4453 49.2188C30.1572 49.2188 30.7344 48.4697 30.7344 47.7578C30.7344 47.0459 30.1572 46.4688 29.4453 46.4688Z" fill="#B370F5"/>
<path d="M60.5547 56.9531H37.1797C36.4678 56.9531 35.8906 57.5303 35.8906 58.2422C35.8906 58.9541 36.4678 59.5312 37.1797 59.5312H60.5547C61.2666 59.5312 61.8438 58.9541 61.8438 58.2422C61.8438 57.5303 61.2666 56.9531 60.5547 56.9531Z" fill="#B370F5"/>
<path d="M29.4453 59.5312C30.1572 59.5312 30.7344 58.9541 30.7344 58.2422C30.7344 57.5303 30.1572 56.9531 29.4453 56.9531C28.7334 56.9531 28.1562 57.5303 28.1562 58.2422C28.1562 58.9541 28.7334 59.5312 29.4453 59.5312Z" fill="#B370F5"/>
<path d="M29.4453 69.8438C30.1572 69.8438 30.7344 69.2666 30.7344 68.5547C30.7344 67.8428 30.1572 67.2656 29.4453 67.2656C28.7334 67.2656 28.1562 67.8428 28.1562 68.5547C28.1562 69.2666 28.7334 69.8438 29.4453 69.8438Z" fill="#B370F5"/>
</g>
<defs>
<linearGradient id="paint0_linear_2034_1147" x1="23.4264" y1="50.5368" x2="142.437" y2="94.539" gradientUnits="userSpaceOnUse">
<stop stop-color="#FD749B"/>
<stop offset="1" stop-color="#281AC8"/>
</linearGradient>
<linearGradient id="paint1_linear_2034_1147" x1="58.7716" y1="50.2216" x2="75.3656" y2="-18.6755" gradientUnits="userSpaceOnUse">
<stop stop-color="#BB6DF3"/>
<stop offset="1" stop-color="#7A00F4"/>
</linearGradient>
<linearGradient id="paint2_linear_2034_1147" x1="106.5" y1="-10.0007" x2="30.1228" y2="107.527" gradientUnits="userSpaceOnUse">
<stop stop-color="#907EFF"/>
<stop offset="1" stop-color="#BB6DF3"/>
</linearGradient>
<clipPath id="clip0_2034_1147">
<rect width="44" height="44" fill="white" transform="translate(23 31)"/>
</clipPath>
</defs>
</svg>
